<svg xmlns="http://www.w3.org/2000/svg" viewBox="182 132 145 200" width="256" height="420" xmlns:v="https://vecta.io/nano"><defs><clipPath id="A"><path d="M.27.23h126.62V114H.27Zm0 0"/></clipPath><clipPath id="B"><path d="M6 112h115v72.3H6Zm0 0"/></clipPath><clipPath id="C"><path d="M0 0h127v185H0z"/></clipPath></defs><path d="M280.18 333.56v9.76l.03 1.24a2.17 2.17 0 0 0 2.15 1.96 2.16 2.16 0 0 0 2.25-1.84c.06-.35.06-.7.06-1.06v-19.88a5.64 5.64 0 0 0-.12-1.23 2.2 2.2 0 0 0-2.25-1.64 2.24 2.24 0 0 0-2.07 1.86c-.07.47-.05.95-.05 1.42v9.4m8.24.24v10.33c0 .65 0 1.3-.19 1.94a6.01 6.01 0 0 1-6.5 4.4 6.15 6.15 0 0 1-5.33-5.58c-.04-.42-.02-.83-.02-1.25v-19.75l.01-1.25a6.2 6.2 0 0 1 5.48-5.67 6.07 6.07 0 0 1 6.34 4.4c.22.7.21 1.4.21 2.1v10.33m32.12-10.64c.05 2.06-.17 2.28-1.71 2.23h-.18c-1.43-.09-1.56-.22-1.72-1.69-.06-.58-.03-1.18-.34-1.73a1.6 1.6 0 0 0-2.43-.46 3.53 3.53 0 0 0-1.16 2.15c-.49 2.64.05 4.95 2.2 6.73l2.51 1.98a9.82 9.82 0 0 1 4.23 8.2c.03 1.67.08 3.33-.4 4.95-.3.98-.74 1.87-1.36 2.68-2.19 2.9-7.38 3.31-9.6-.67a13.8 13.8 0 0 1-1.55-6.87c0-.7.4-1.11 1.06-1.21.29-.05.59-.04.89-.03 1.3.01 1.55.24 1.73 1.49l.47 2.98c.1.51.34 1 .54 1.5.62 1.51 2.82 1.5 3.62.13.32-.56.52-1.18.64-1.83.26-1.48.22-2.96-.04-4.43a5.33 5.33 0 0 0-2.07-3.41l-2.4-1.84c-.6-.48-1.18-1-1.71-1.55-2.96-3.12-3.38-6.79-2.22-10.75.26-.92.77-1.74 1.39-2.47 1.54-1.8 3.55-2.32 5.78-1.89 1.42.28 2.39 1.27 3.03 2.55.6 1.2.8 2.47.8 3.26m-130.5 11.19v-9.26c0-1.18.05-2.37.41-3.51.28-.86.65-1.67 1.2-2.37a4.77 4.77 0 0 1 3.43-1.98c3.72-.4 5.89 1.14 6.67 4.8.27 1.28.24 2.6.16 3.9-.02.33-.24.53-.57.58-.17.03-.35.04-.52.04-2.16-.03-2.23.3-2.3-2.01a6.18 6.18 0 0 0-.53-2.6 2.02 2.02 0 0 0-3.38-.48 3.4 3.4 0 0 0-.87 1.9 9.7 9.7 0 0 0-.05 1.07v18.69c0 .71.03 1.43.35 2.09.17.37.36.75.64 1.05.77.86 2.04.85 2.82-.01a5.09 5.09 0 0 0 1.18-2.92c.07-.65.09-1.3.16-1.95.06-.52.3-.78.79-.8 2.4-.12 2.66-.1 2.48 2.32-.1 1.36-.27 2.7-.86 3.97a6.26 6.26 0 0 1-2.5 2.93 6.32 6.32 0 0 1-7.36-1.2 4.6 4.6 0 0 1-1.28-2.87c-.04-.7-.07-1.42-.07-2.13v-9.25m32.86.21v-9.79c-.02-1.02.12-2.01.37-2.99a7 7 0 0 1 1.22-2.55 4.95 4.95 0 0 1 3.78-2.04c3.87-.26 5.82 1.64 6.39 5.16.17 1.05.27 2.12.2 3.2-.05.74-.26.96-.96 1-.6.01-1.19 0-1.78-.02-.4-.03-.64-.3-.67-.7-.04-.47-.02-.95-.05-1.43a6.3 6.3 0 0 0-.6-2.57 1.99 1.99 0 0 0-3.16-.53c-.44.41-.73.92-.9 1.51-.2.7-.22 1.4-.22 2.11v17.63c0 .71.02 1.42.22 2.11.06.23.1.47.2.68.37.78.85 1.44 1.8 1.53 1.04.1 1.65-.49 2.12-1.31a6.8 6.8 0 0 0 .8-3.25c.05-1.8.2-1.78 2.04-1.76.24 0 .48.03.7.1.3.07.54.27.56.6.13 2.48-.19 4.83-1.61 6.97-2.14 3.22-7.63 2.87-9.62-.28a5.58 5.58 0 0 1-.83-3.05v-10.33m20.64-.14v-9.79c-.01-1.32.2-2.6.7-3.82a5.59 5.59 0 0 1 2.44-2.96 6.38 6.38 0 0 1 5.33-.25c1.65.57 2.51 1.88 3 3.5.44 1.5.51 3.04.45 4.58-.03.63-.27.84-.9.86-.59.02-1.18.02-1.77-.01-.41-.02-.66-.28-.7-.68-.04-.47-.03-.95-.05-1.42a6.68 6.68 0 0 0-.52-2.42c-.65-1.47-2.43-1.7-3.48-.48a3.94 3.94 0 0 0-.84 2.12c-.06.47-.04.95-.04 1.42v17.27c0 .65.05 1.3.13 1.95.04.35.12.7.27 1.02.39.84.91 1.54 1.96 1.57.96.03 1.52-.54 1.96-1.3.6-1 .77-2.12.81-3.24.09-1.85.1-1.81 2.2-1.79.17 0 .35.03.52.08.3.1.56.26.58.6.14 2.66-.15 5.22-1.93 7.38-1.61 1.94-3.74 2.13-6 1.63a5.26 5.26 0 0 1-4.12-5.32v-10.5zm20.59-.8v-14.59c0-1.6.09-1.67 1.72-1.68 2-.02 2.1.06 2.1 2.09v28.64c0 2.02-.03 2.04-2.12 2.02-.3 0-.6 0-.9-.03-.5-.05-.75-.29-.78-.79-.03-.47-.02-.95-.02-1.42V333.6m-49.72.06v14.21c0 .47 0 .95-.03 1.42-.04.48-.3.7-.81.77l-.36.02c-2.73 0-2.57.18-2.57-2.43V319.4c0-1.85-.25-2.1 2.06-2.05.24 0 .48-.01.71.01.67.08.96.37 1 1.01.02.48 0 .95 0 1.43v13.86m83.24-8.07v-5.87c0-.41-.02-.83.05-1.24.13-.82.9-1.47 1.73-1.53.84-.05 1.64.48 1.87 1.33.11.4.15.81.15 1.22v12.27c0 .41-.04.83-.16 1.22a1.86 1.86 0 0 1-1.91 1.28 1.91 1.91 0 0 1-1.7-1.57c-.05-.41-.03-.83-.03-1.25v-5.86" fill="#fff"/><g clip-path="url(#C)" transform="translate(186 114)"><g clip-path="url(#A)"><path d="M126.85 79.4a20.01 20.01 0 0 1-.05 3.19 93.12 93.12 0 0 1-1.9 11.57c-1.04 4.75-2.3 9.44-3.63 14.1-.36 1.23-.8 2.44-1.21 3.74-.42-.68-.5-1.33-.64-1.96l-2.16-9.1-1.4-5.58a90.86 90.86 0 0 0-4.32-13.15 27.8 27.8 0 0 1-1.7-5.79c-.47-2.44-1.06-4.86-1.54-7.3-.68-3.5-1.5-6.95-2.41-10.38-1-3.73-2.2-7.37-3.8-10.89a36.12 36.12 0 0 0-4.42-7.47 19.8 19.8 0 0 0-7.1-5.8 16.11 16.11 0 0 0-6.7-1.49c-3.27-.06-6.53-.14-9.78-.34a61.9 61.9 0 0 1-8.8-1.22c-1.1-.23-2.13-.7-3.18-1.1-1.5-.57-2.96-1.2-4.45-1.77-4.53-1.74-9.04-1.55-13.56.05a33.75 33.75 0 0 0-10.62 6.32A59.94 59.94 0 0 0 21.9 48.66a55.14 55.14 0 0 0-4.2 7.82c-1.37 3.15-2.57 6.36-3.02 9.8a17.06 17.06 0 0 0-.16 3.55c.34 4.11-.11 8.18-.6 12.24a195.2 195.2 0 0 1-2.82 15.75l-.03.16c-.5 2.4-1.11 4.73-1.71 7.1l-1.64 6.18c-.21.78-.41 1.6-.88 2.27-.4-.04-.53-.3-.66-.57-.45-.97-.81-1.97-1.03-3.02a95.56 95.56 0 0 1-1.33-8.07c-.17-1.4-.51-2.82-.6-4.22-.08-1.32.4-2.67.5-4.02.4-4.42-.04-8.77-1.37-13-1-3.19-1.45-6.47-1.78-9.78-.48-4.86-.31-9.7 0-14.58a16.78 16.78 0 0 1 3.06-8.4c1.56-2.3 3.16-4.58 4.5-7.02a46 46 0 0 0 2.98-6.83 36.16 36.16 0 0 1 6.85-11.96 23.55 23.55 0 0 1 4.35-3.91c1.46-1 2.45-2.37 3.32-3.87a33.9 33.9 0 0 1 1.84-2.84 5.18 5.18 0 0 1 2.97-2.15c2.05-.53 3.54-1.84 5-3.25.89-.86 1.77-1.76 2.7-2.57 1.08-.92 2.44-1.18 3.79-1.4a41.3 41.3 0 0 1 9.23-.17l7.28.52a5.9 5.9 0 0 0 3.7-.93 7.73 7.73 0 0 1 6.82-.83c2.9.91 5.92 1.22 8.94 1.37 3.97.2 7.94.43 11.89.83 3.18.32 6.1 1.4 8.87 2.95 2.7 1.52 5.02 3.56 7.26 5.68.13.11.24.26.32.4.12.2-.02.41-.16.42-.6.03-1.18.01-1.78 0-.53-.04-1.06-.13-1.6-.14-.5-.01-.95.12-1.17.62-.23.52.05.95.36 1.29.36.39.8.7 1.24 1.01 1.99 1.39 4.1 2.6 6.2 3.8 1.14.65 2.26 1.32 3.42 1.91 2.4 1.24 4.07 3.19 5.45 5.46 2.3 3.8 3.59 7.96 4.5 12.27a65.17 65.17 0 0 1 1.36 11.65c.12 4.09.5 8.16 1.03 12.22a254.2 254.2 0 0 1 1.76 17"/></g><g clip-path="url(#B)"><path d="M120.52 119.26a56.5 56.5 0 0 1-.36 12.8c-.08 1.85-.55 3.63-.96 5.4a54.54 54.54 0 0 1-5.63 14.52 61.38 61.38 0 0 1-14.36 17.25 53.63 53.63 0 0 1-6 4.42A13.2 13.2 0 0 0 91 175.4a33.13 33.13 0 0 1-7.56 5.55 27.9 27.9 0 0 1-9.92 3.14c-5.41.64-10.61-.2-15.7-2.07a50.43 50.43 0 0 1-12-6.45 41.49 41.49 0 0 1-4.65-3.82 4.47 4.47 0 0 0-1-.74 74.1 74.1 0 0 1-12.13-8.62 71.55 71.55 0 0 1-12.25-13.52 57.29 57.29 0 0 1-6.45-12.4c-.1-.28-.14-.58-.2-.86-.15-.22-.3-.43-.24-.7l-.11-.4c-.22-.31-.42-.62-.34-1.03a.32.32 0 0 1-.06-.3c-.2-.22-.32-.46-.25-.77-.23-.67-.5-1.32-.48-2.05-.15-.11-.23-.25-.15-.44-.04-.24-.1-.47-.13-.7-.54-1.24-.43-2.58-.61-3.86-.3-2.11-.35-4.25-.2-6.38-.42-1.21.19-4.27.28-5.45.29 1.15.23 4.22.08 5.4 0 3.46.37 6.89 1.08 10.29l.1.6c.17.12.25.26.18.46l.2.94c.26.22.3.52.28.84v.01c.23.32.4.65.32 1.06l.1.59c.19.1.26.27.22.48l.17.55c.2.12.26.3.22.52 1.12 2.5 2.13 5.01 3.49 7.38a61.62 61.62 0 0 0 5.36 7.94 70.88 70.88 0 0 0 6.45 7.08 81.05 81.05 0 0 0 15.89 11.87c.86.48 1.59 1.21 2.35 1.87a52.19 52.19 0 0 0 10 6.7 37.6 37.6 0 0 0 7.39 3c4.3 1.22 8.69 1.81 13.17 1.12 3.98-.6 7.65-2.01 11.02-4.22a33.45 33.45 0 0 0 5.23-4.23c.47-.47.99-.84 1.55-1.18a61.96 61.96 0 0 0 15.86-14.11 57.22 57.22 0 0 0 11.6-25.04c.1-.58.25-1.16.38-1.74.1-1.04.18-2.1.34-3.14.3-1.98.29-3.98.3-5.98l.06-3.35c-.28-1.24-.05-5.74-.17-7.24.48.68.27 4.46.34 4.97.1.76.27 1.52.12 2.3" fill="#fff"/></g><g fill="#fff"><path d="M92.99 143.68c-.15-.2-.23-.37-.37-.45-.4-.25-.83-.46-1.24-.68-.42-.22-.81-.16-1.14.17-.93.94-2.1 1.48-3.23 2.1a6.31 6.31 0 0 1-5.77.46c-.22-.09-.45-.14-.67-.23l-5.78-2.24c-1.37-.55-2.7-.79-4.07.05-.82.5-1.77.66-2.7.17-1-.53-2.02-.28-2.92.15-1.66.78-3.4 1.33-5.08 2.07a1.23 1.23 0 0 0-1.05.32h-.02l-1.05.14c-3.52.8-6.93.58-10.22-1.02-.47-.24-.98-.39-1.48-.55-.1-.03-.25.04-.3.12-.06.07-.05.24 0 .32.29.37.57.75.9 1.08a49.72 49.72 0 0 0 5.4 4.62 33.73 33.73 0 0 0 8.47 4.76c3.03 1.1 6.1 1.48 9.25.83a31.05 31.05 0 0 0 14.87-7.47c.09.01.15-.03.16-.12.14 0 .2-.07.2-.21.1-.01.16-.07.15-.16a.16.16 0 0 0 .17-.2.18.18 0 0 0 .19-.18c.12 0 .18-.05.17-.17.12 0 .18-.07.19-.19l.13-.03.03-.14c.12-.01.19-.08.19-.21l.12-.02.02-.12c.13 0 .2-.07.24-.2.14.03.22-.03.26-.15 1.9-1.05 3.73-2.24 5.98-2.62M81.4 117.45c.58.02 1.08.21 1.4.71a23.09 23.09 0 0 1 1.1.7c1.43.42 2.82.94 4.25 1.26a19.1 19.1 0 0 0 15.26-2.98 18.74 18.74 0 0 0 7.16-9.05l.78-2.17c.3-.94.93-1.48 1.9-1.63l3-.49c0-.2.07-.37.03-.53l-.44-1.99 1.4-.34 2.17 9.1c.15.63.22 1.28.64 1.96.12 1.5-.11 6 .17 7.24l-.05 3.35c-.02 2-.01 4-.31 5.98-.16 1.04-.23 2.1-.34 3.14l-.38 1.74a57.1 57.1 0 0 1-11.6 25.04 61.96 61.96 0 0 1-15.86 14.11c-.56.34-1.08.7-1.55 1.18a33.45 33.45 0 0 1-5.23 4.23 27.46 27.46 0 0 1-11.02 4.22c-4.48.7-8.87.1-13.17-1.12a37.6 37.6 0 0 1-7.4-3 52.19 52.19 0 0 1-10-6.7c-.75-.66-1.48-1.39-2.34-1.87a81.05 81.05 0 0 1-15.9-11.87 71.44 71.44 0 0 1-6.44-7.08 61.7 61.7 0 0 1-5.36-7.94c-1.36-2.37-2.37-4.89-3.5-7.38.05-.22-.01-.4-.21-.52l-.17-.55a.42.42 0 0 0-.21-.48l-.11-.6c.09-.4-.1-.73-.32-1.05v-.01c.03-.32-.02-.62-.28-.84l-.2-.94c.07-.2-.01-.34-.18-.45l-.1-.61a50.7 50.7 0 0 1-1.08-10.3c.15-1.17.2-4.24-.08-5.39.47-.68.67-1.5.88-2.27l1.64-6.18c.6-2.37 1.2-4.7 1.7-7.1l1.39.3c-.14.5-.06.91.2 1.35.75 1.27 1.56 2.53 2.16 3.87.45 1.01 1.1 1.22 2.08 1.16 1.54-.09 3.07.14 4.6.36 1.25.18 2.25.66 2.52 2.05.05.29.19.56.29.84a19.61 19.61 0 0 0 5.33 8.27 19.48 19.48 0 0 0 12.34 5.21 18.4 18.4 0 0 0 8.34-1.43c.48-.2.96-.47 1.52-.43v.04c.13.25.25.3.36.26v.04a.3.3 0 0 1-.04.15 4.94 4.94 0 0 0-.36 3.29c.34 1.69 1.28 2.55 3 2.77a6.67 6.67 0 0 0 .89.07 9 9 0 0 1 4.38 1.24c.98.55 1.95 1.1 2.85 1.79 1.12.86 2.27 1.71 3.47 2.45 1.8 1.12 3.92 1.15 5.27-.91l.3-.44a5.72 5.72 0 0 1 2.9-2.24c1.44-.54 2.89-1.1 4.4-1.26 2.52-.28 3.89-1.77 4.7-4 .46-1.25.45-2.42-.44-3.5l-1.1-1.1a1.1 1.1 0 0 1-1-.73"/><path d="M56.22 76.53a6.9 6.9 0 0 0 .18-3.69c-.11-.56-.66-.87-1.22-.74-.17.03-.35.07-.51.15-1.21.6-2.48.6-3.8.49a31.8 31.8 0 0 0-8 .11c-.76.12-1.52.13-2.28-.06a9.55 9.55 0 0 0-5.1.17 15.98 15.98 0 0 0-5.2 2.65 879.94 879.94 0 0 1-5.8 4.39c-.66.51-1.32.98-2.12 1.27a6.3 6.3 0 0 0-2.2 1.5c-.3.29-.6.64-.65 1.03-.18 1.23-.28 2.48.25 3.67.64 1.44 1.4 1.55 2.5.38l.13-.14a9.8 9.8 0 0 1 6.63-3.4 13.1 13.1 0 0 0 4.73-1.43l2.2-1.14c.8-.4 1.6-.74 2.47-.99 1.99-.59 4-.4 6-.23l7.44.75v-.02l1.06.08c1.98.05 2.58-.45 2.77-2.38.09-.83.2-1.63.52-2.42m51.62 8.82c.25-.22.27-.52.18-.81a4.37 4.37 0 0 0-.98-1.67c-.4-.46-.81-.94-.82-1.54-.05-1.28-.86-1.92-1.86-2.38a16.1 16.1 0 0 1-4.3-3.1 11.2 11.2 0 0 0-3.23-2.14c-2.36-1.07-4.82-1.57-7.41-.86-.64.17-1.3.12-1.94 0a31.8 31.8 0 0 0-8.15-.1 7.6 7.6 0 0 1-3.47-.38c-1.42-.56-1.94-.21-2.16 1.28-.04.23-.04.47-.06.75.03.25.02.56.1.83.47 1.59.95 3.16 1.08 4.83.05.65.5 1.02 1.17 1.16.7.14 1.4.13 2.12.06l6.18-.57c3.24-.43 6.5-.32 9.75-.6a8.3 8.3 0 0 1 3.15.37l4.09 1.14c1.3.23 2.29.9 3.18 1.77l1.27 1.24c.35.31.74.59 1.14.84.34.23.68.14.97-.12m9.42 15.6l-1.41.33-.48-1.98c-.32-1.28-.35-1.27-1.58-1.4l-1.05-.17c-.41-.1-.74-.34-.88-.79a5.93 5.93 0 0 0-.31-.83c-.67-1.58-1.21-3.23-2.06-4.71a19.36 19.36 0 0 0-10.61-8.98 18.9 18.9 0 0 0-12.55-.22 19.25 19.25 0 0 0-11.81 10.33c-.6 1.22-.98 2.5-1.47 3.76-4.18-2.5-5.91-2.67-11.07.1l-.84-2.12a19.2 19.2 0 0 0-8.7-9.74 19.1 19.1 0 0 0-15.8-1.4 18.57 18.57 0 0 0-11.28 9.94c-.56 1.17-1.21 2.35-1.51 3.59-.41 1.66-1.46 2.14-2.95 2.16-.71 0-1.42 0-2.13-.03-.9-.05-1.78-.18-2.66-.21-.81-.02-1.34-.33-1.68-1.07-.33-.74-.75-1.44-1.23-2.36l-.75 3.13-1.38-.3.03-.16a195.18 195.18 0 0 0 2.82-15.75c.49-4.06.94-8.13.6-12.24-.1-1.18 0-2.36.16-3.54.45-3.45 1.65-6.66 3.02-9.81a55.14 55.14 0 0 1 4.2-7.82 59.94 59.94 0 0 1 11.58-13.63c3.2-2.7 6.65-4.93 10.62-6.32 4.52-1.6 9.03-1.79 13.56-.05l4.45 1.77c1.05.4 2.09.87 3.18 1.1 2.9.6 5.83 1.04 8.8 1.22 3.25.2 6.5.28 9.78.34a16 16 0 0 1 6.7 1.49 19.8 19.8 0 0 1 7.1 5.8c1.8 2.3 3.2 4.81 4.42 7.47 1.6 3.52 2.8 7.16 3.8 10.89.9 3.43 1.73 6.89 2.4 10.38l1.56 7.3c.38 1.99.89 3.93 1.69 5.8a90.86 90.86 0 0 1 4.33 13.14l1.39 5.58"/></g><path d="M116.29 103.27c.04.16-.02.33-.03.53l-3 .49c-.97.15-1.6.69-1.9 1.63l-.78 2.17a18.74 18.74 0 0 1-7.16 9.05 19.1 19.1 0 0 1-15.26 2.98c-1.43-.32-2.82-.84-4.24-1.26l-1.1-.7c-.33-.5-.83-.7-1.41-.72-.13-.43-.41-.68-.87-.7a.4.4 0 0 0-.03-.16.31.31 0 0 0-.07-.12.24.24 0 0 0-.11-.07l-.16.03-.01-.05c-.1-.02-.16-.07-.18-.17a.18.18 0 0 1-.22-.19c-.08.02-.12-.02-.12-.1-.17.01-.26-.08-.3-.24-.13-.1-.3-.19-.42-.3a20.15 20.15 0 0 1-5.4-8.43c-.15-.5-.25-1.03-.6-1.46-1.54-1.88-3.41-2.83-5.92-2.35a9.3 9.3 0 0 0-3.65 1.73c-.71.5-1.14 1.1-1.38 1.96a20.11 20.11 0 0 1-2.41 5.5c-1.15 1.8-2.67 3.29-4.17 4.8a.4.4 0 0 1-.37.31c-1 .51-1.94 1.09-2.8 1.8-.2.03-.4.04-.4.3-.55-.04-1.03.23-1.51.43a18.4 18.4 0 0 1-8.34 1.43 19.5 19.5 0 0 1-12.34-5.21 19.61 19.61 0 0 1-5.33-8.27c-.1-.28-.24-.55-.3-.84-.26-1.39-1.26-1.87-2.51-2.05-1.53-.22-3.06-.45-4.6-.36-.98.06-1.63-.15-2.08-1.16-.6-1.34-1.41-2.6-2.16-3.87a1.61 1.61 0 0 1-.2-1.35l.75-3.13 1.23 2.36c.34.74.87 1.05 1.68 1.07l2.66.2c.7.05 1.42.04 2.13.04 1.49-.02 2.54-.5 2.95-2.16.3-1.24.95-2.42 1.5-3.59a18.57 18.57 0 0 1 11.29-9.94 19.1 19.1 0 0 1 15.8 1.4 19.2 19.2 0 0 1 8.7 9.74l.84 2.13c5.16-2.78 6.89-2.61 11.07-.11.49-1.25.88-2.54 1.47-3.76a19.25 19.25 0 0 1 11.8-10.33 18.9 18.9 0 0 1 12.56.22 19.36 19.36 0 0 1 10.6 8.98c.86 1.48 1.4 3.13 2.07 4.7a5.64 5.64 0 0 1 .3.84c.15.45.48.68.89.79.34.09.7.13 1.05.16 1.23.14 1.26.13 1.58 1.41l.48 1.98.44 1.99m-8.27-18.73c.09.29.07.59-.18.81-.3.26-.63.35-.97.12-.4-.25-.8-.53-1.14-.84l-1.27-1.24a5.88 5.88 0 0 0-3.18-1.77c-1.4-.25-2.73-.74-4.1-1.14a8.3 8.3 0 0 0-3.14-.37l-9.75.6-6.18.57c-.71.07-1.42.08-2.12-.06-.66-.14-1.12-.5-1.17-1.16-.13-1.67-.61-3.24-1.08-4.83-.08-.27-.07-.58-.1-.83l.06-.75c.22-1.49.74-1.84 2.16-1.28a7.6 7.6 0 0 0 3.47.38 31.8 31.8 0 0 1 8.15.1c.64.12 1.3.17 1.94 0 2.59-.7 5.05-.2 7.4.86a11.2 11.2 0 0 1 3.25 2.14 15.97 15.97 0 0 0 4.29 3.1c1 .46 1.8 1.1 1.86 2.38 0 .6.43 1.08.82 1.54.43.49.79 1.03.98 1.67m-23.78 63.54c.42-.67.4-.85-.18-1a11.78 11.78 0 0 0-2.45-.36c-2.2-.07-4.37.12-6.55.28a10.9 10.9 0 0 0-3.27.72c-1.27.51-2.6.73-3.98.76-1.67.04-3.28-.23-4.9-.6-1.44-.32-2.87-.74-4.35-.75a36.16 36.16 0 0 1-6-.5c-.95.12-1.88-.19-2.82-.19-.14 0-.37-.03-.38.22 0 .1.04.23.1.3.76.85 1.7 1.47 2.57 2.17a34.51 34.51 0 0 0 8.16 4.9c1.36.6 2.8.94 4.26 1.17 2.99.47 5.89-.07 8.72-.98a31.23 31.23 0 0 0 9.92-5.35c.36-.3.77-.53 1.15-.8m8.38-4.84c.14.08.22.26.37.45-2.25.38-4.08 1.57-5.98 2.62-.04.12-.12.18-.26.15-.03.13-.11.2-.24.2l-.02.12-.12.02c0 .13-.07.2-.2.21l-.02.14-.13.03c-.01.12-.07.18-.2.19.02.12-.04.18-.16.17-.01.11-.07.17-.2.18a.15.15 0 0 1-.16.2c0 .09-.04.15-.14.16 0 .14-.07.21-.21.21-.01.1-.07.13-.16.12a31.05 31.05 0 0 1-14.87 7.47c-3.15.65-6.22.27-9.25-.83a33.73 33.73 0 0 1-8.47-4.76 49.72 49.72 0 0 1-5.4-4.62c-.33-.33-.61-.71-.9-1.08-.05-.08-.06-.25 0-.32.05-.08.2-.15.3-.12.5.16 1 .3 1.48.55 3.29 1.6 6.7 1.82 10.22 1.02.34-.08.7-.09 1.05-.14h.02a1.23 1.23 0 0 1 1.05-.32c1.68-.74 3.42-1.29 5.08-2.07.9-.43 1.92-.68 2.92-.15.93.49 1.88.33 2.7-.17 1.38-.84 2.7-.6 4.07-.05l5.78 2.24c.22.1.45.14.67.23 2 .81 3.87.61 5.77-.45 1.14-.63 2.3-1.17 3.23-2.11.33-.33.72-.4 1.14-.17.4.22.84.43 1.24.68"/><path d="M84.06 147.08c.58.15.6.33.18 1l-1.15.8a31.23 31.23 0 0 1-9.92 5.34c-2.83.9-5.73 1.45-8.72.98-1.46-.23-2.9-.58-4.26-1.16a34.51 34.51 0 0 1-8.16-4.91c-.87-.7-1.81-1.32-2.56-2.16a.5.5 0 0 1-.11-.31c0-.25.24-.22.38-.22.94 0 1.87.31 2.82.19 1.98.35 3.98.48 6 .5 1.48.01 2.9.43 4.35.75 1.62.37 3.23.64 4.9.6 1.38-.03 2.7-.25 3.98-.76a10.9 10.9 0 0 1 3.27-.72l6.55-.28a11.15 11.15 0 0 1 2.45.36" fill="#fff"/><path d="M83.5 119.29c.9 1.07.9 2.24.45 3.5-.81 2.22-2.18 3.71-4.7 4-1.51.15-2.96.71-4.4 1.25a5.72 5.72 0 0 0-2.9 2.24l-.3.44c-1.35 2.06-3.47 2.03-5.27.9a41.19 41.19 0 0 1-3.47-2.44c-.9-.7-1.87-1.24-2.85-1.79a9 9 0 0 0-4.38-1.24 6.82 6.82 0 0 1-.9-.07c-1.71-.22-2.65-1.08-3-2.77a4.94 4.94 0 0 1 .37-3.29.3.3 0 0 0 .04-.15v-.04c.12-.04.24-.19.35-.31l2.53-1.66a2.35 2.35 0 0 0 .35-.04c.28-.03.46.08.52.35.05.22-.1.31-.26.4l-2.15 1.25c-1.2.82-1.33 2.02-1.02 3.33a2.7 2.7 0 0 0 2.29 2.18c.52.1 1.05.12 1.59.15a9.5 9.5 0 0 1 4.36 1.37l3.84 2.56 2.49 1.71c1.6.93 2.74.67 3.86-.8l.42-.57a5.79 5.79 0 0 1 2.55-2.12 19.87 19.87 0 0 1 5.58-1.7c.59-.09 1.17-.17 1.67-.54a5.64 5.64 0 0 0 2.27-3.88c.09-.68-.13-1.3-.64-1.77-.9-.85-1.8-1.74-3.06-2.05a1.68 1.68 0 0 1-.61-.34c-.15-.13-.1-.4.05-.44.26-.09.57-.06.85-.1.2-.06.18-.23.15-.39l.16-.03c.04 0 .08.04.1.07.04.03.06.07.08.12a.38.38 0 0 1 .03.16c-.05.14-.18.25-.01.42.26.24.53.36.88.29.19.45.52.7 1 .72l1.1 1.12"/><path d="M82.79 119.74a2 2 0 0 1 .64 1.77 5.64 5.64 0 0 1-2.27 3.88c-.5.37-1.08.45-1.67.53-1.95.28-3.8.88-5.58 1.7a5.79 5.79 0 0 0-2.55 2.13c-.13.2-.28.38-.42.57-1.12 1.47-2.25 1.73-3.86.8-.87-.5-1.68-1.1-2.5-1.71a44.3 44.3 0 0 0-3.83-2.56 9.5 9.5 0 0 0-4.36-1.37l-1.6-.15a2.7 2.7 0 0 1-2.28-2.18c-.31-1.31-.18-2.5 1.02-3.33.68-.47 1.43-.84 2.15-1.25.16-.09.3-.18.26-.4-.06-.27-.24-.38-.52-.35l-.35.04-2.53 1.66c-.11.12-.23.27-.35.3-.02-.14-.17-.25-.36-.29-.01-.26.2-.27.39-.3.86-.71 1.8-1.29 2.8-1.8a.4.4 0 0 0 .37-.3c1.5-1.52 3.02-3 4.17-4.81a20.11 20.11 0 0 0 2.4-5.5 3.4 3.4 0 0 1 1.39-1.96 9.3 9.3 0 0 1 3.65-1.73c2.5-.48 4.38.47 5.92 2.35.35.43.45.96.6 1.46a20.15 20.15 0 0 0 5.4 8.43c.13.11.29.2.43.3.03.16.12.25.29.24 0 .08.04.12.12.1 0 .14.09.2.22.19.02.1.08.15.18.17v.05c.04.16.07.33-.14.38-.28.05-.6.02-.85.11-.14.04-.2.3-.05.44a1.72 1.72 0 0 0 .6.34c1.28.31 2.17 1.2 3.07 2.05" fill="#fff"/><path d="M81.4 117.44zm-25-44.6c.23 1.24.27 2.5-.18 3.7a9.07 9.07 0 0 0-.52 2.4c-.2 1.94-.8 2.44-2.77 2.39l-1.06-.08v.02l-7.43-.75c-2.01-.16-4.02-.36-6.01.23-.86.25-1.67.59-2.46.99l-2.21 1.14a13.1 13.1 0 0 1-4.73 1.42 9.8 9.8 0 0 0-6.63 3.41l-.12.14c-1.1 1.17-1.87 1.06-2.51-.38-.53-1.19-.43-2.44-.25-3.67.06-.39.35-.74.66-1.03a6.3 6.3 0 0 1 2.19-1.5c.8-.29 1.46-.76 2.12-1.27l5.8-4.4a15.98 15.98 0 0 1 5.2-2.64 9.5 9.5 0 0 1 5.1-.17 5.7 5.7 0 0 0 2.29.06 31.8 31.8 0 0 1 7.99-.11c1.32.11 2.59.12 3.8-.49.16-.08.34-.12.5-.15.57-.13 1.12.18 1.23.74m-4.21 46.99c-.11.04-.23-.01-.36-.26v-.04c.19.04.34.15.36.3"/></g><path d="M306.06 226l1.2-3.74c1.35-4.66 2.6-9.35 3.64-14.1a93.12 93.12 0 0 0 1.9-11.57c.1-1.07.12-2.13.05-3.2-.37-5.7-1.01-11.34-1.76-17-.53-4.05-.91-8.12-1.03-12.21-.11-3.93-.55-7.8-1.36-11.65-.91-4.31-2.2-8.47-4.5-12.27-1.38-2.26-3.04-4.22-5.45-5.46-1.16-.59-2.28-1.26-3.41-1.9a78.01 78.01 0 0 1-6.2-3.81c-.45-.3-.9-.62-1.25-1.01-.3-.34-.59-.77-.36-1.3.22-.5.68-.62 1.18-.6.53 0 1.06.09 1.59.12.6.02 1.2.04 1.78 0 .14 0 .28-.21.16-.4a1.42 1.42 0 0 0-.32-.41c-2.24-2.12-4.56-4.16-7.26-5.68a22.75 22.75 0 0 0-8.87-2.95c-3.95-.4-7.92-.63-11.89-.83-3.02-.15-6.04-.46-8.94-1.37a7.73 7.73 0 0 0-6.8.83 5.9 5.9 0 0 1-3.72.93l-7.28-.52c-3.08-.22-6.16-.3-9.23.18-1.35.2-2.7.47-3.78 1.39-.94.81-1.82 1.71-2.71 2.57-1.46 1.4-2.95 2.72-5 3.25a5.18 5.18 0 0 0-2.97 2.15 33.9 33.9 0 0 0-1.84 2.84 11.46 11.46 0 0 1-3.32 3.87 23.55 23.55 0 0 0-4.35 3.9 36.16 36.16 0 0 0-6.85 11.97 45.88 45.88 0 0 1-2.98 6.83c-1.34 2.44-2.94 4.72-4.5 7.02a16.64 16.64 0 0 0-3.05 8.4c-.32 4.87-.5 9.72-.01 14.58.33 3.31.78 6.6 1.78 9.77a33.33 33.33 0 0 1 1.38 13c-.11 1.36-.59 2.7-.5 4.03.08 1.4.42 2.81.59 4.22a96.23 96.23 0 0 0 1.33 8.07c.22 1.05.58 2.05 1.03 3.02.13.27.27.53.66.57.47-.68.67-1.5.88-2.27l1.64-6.18c.6-2.37 1.2-4.7 1.7-7.1l.04-.16a195.18 195.18 0 0 0 2.82-15.75c.49-4.06.94-8.13.6-12.24-.1-1.18.01-2.36.16-3.54.45-3.45 1.65-6.66 3.02-9.81a55.14 55.14 0 0 1 4.2-7.82 59.94 59.94 0 0 1 11.58-13.63c3.2-2.7 6.65-4.93 10.62-6.32 4.52-1.6 9.03-1.79 13.56-.05 1.5.57 2.96 1.2 4.45 1.77 1.05.4 2.09.87 3.18 1.1a61.9 61.9 0 0 0 8.8 1.22c3.25.2 6.51.28 9.78.34 2.32.05 4.59.47 6.71 1.49a19.8 19.8 0 0 1 7.1 5.8c1.8 2.3 3.2 4.81 4.4 7.47a68.9 68.9 0 0 1 3.81 10.89c.91 3.43 1.73 6.89 2.41 10.38l1.55 7.3c.38 1.99.9 3.93 1.69 5.8a90.86 90.86 0 0 1 4.32 13.13l1.4 5.58 2.15 9.1c.16.64.23 1.29.65 1.97zm0 0" fill="none" stroke="#fff" stroke-miterlimit="10"/></svg>